<mxfile host="app.diagrams.net" agent="Mozilla/5.0 (Windows NT 10.0; Win64; x64; rv:143.0) Gecko/20100101 Firefox/143.0" version="28.2.3">
  <diagram name="Page-1" id="i98a2ihk0jvBnsTpbwm8">
    <mxGraphModel grid="1" page="1" gridSize="10" guides="1" tooltips="1" connect="1" arrows="1" fold="1" pageScale="1" pageWidth="850" pageHeight="1100" math="0" shadow="0">
      <root>
        <mxCell id="0" />
        <mxCell id="1" parent="0" />
        <mxCell id="TM8YRsqnfAsOyz8qdMfb-3" style="edgeStyle=orthogonalEdgeStyle;rounded=0;orthogonalLoop=1;jettySize=auto;html=1;entryX=0.5;entryY=0;entryDx=0;entryDy=0;" edge="1" parent="1" source="TykPopmfQmUwdfsiN_HE-1" target="TykPopmfQmUwdfsiN_HE-3">
          <mxGeometry relative="1" as="geometry" />
        </mxCell>
        <mxCell id="TM8YRsqnfAsOyz8qdMfb-20" style="edgeStyle=orthogonalEdgeStyle;rounded=0;orthogonalLoop=1;jettySize=auto;html=1;entryX=0.5;entryY=0;entryDx=0;entryDy=0;" edge="1" parent="1" source="TykPopmfQmUwdfsiN_HE-1" target="TykPopmfQmUwdfsiN_HE-2">
          <mxGeometry relative="1" as="geometry" />
        </mxCell>
        <mxCell id="TykPopmfQmUwdfsiN_HE-1" value="&lt;div&gt;Auction Page&lt;/div&gt;" style="rounded=0;whiteSpace=wrap;html=1;" vertex="1" parent="1">
          <mxGeometry x="530" y="180" width="120" height="60" as="geometry" />
        </mxCell>
        <mxCell id="TM8YRsqnfAsOyz8qdMfb-9" style="edgeStyle=orthogonalEdgeStyle;rounded=0;orthogonalLoop=1;jettySize=auto;html=1;" edge="1" parent="1" source="TykPopmfQmUwdfsiN_HE-2" target="TM8YRsqnfAsOyz8qdMfb-6">
          <mxGeometry relative="1" as="geometry" />
        </mxCell>
        <mxCell id="TM8YRsqnfAsOyz8qdMfb-21" style="edgeStyle=orthogonalEdgeStyle;rounded=0;orthogonalLoop=1;jettySize=auto;html=1;entryX=0;entryY=0.5;entryDx=0;entryDy=0;" edge="1" parent="1" source="TykPopmfQmUwdfsiN_HE-2" target="TykPopmfQmUwdfsiN_HE-3">
          <mxGeometry relative="1" as="geometry" />
        </mxCell>
        <mxCell id="TykPopmfQmUwdfsiN_HE-2" value="Click on auctioned item" style="rounded=0;whiteSpace=wrap;html=1;" vertex="1" parent="1">
          <mxGeometry x="360" y="270" width="120" height="60" as="geometry" />
        </mxCell>
        <mxCell id="TM8YRsqnfAsOyz8qdMfb-5" style="edgeStyle=orthogonalEdgeStyle;rounded=0;orthogonalLoop=1;jettySize=auto;html=1;entryX=0.5;entryY=0;entryDx=0;entryDy=0;" edge="1" parent="1" source="TykPopmfQmUwdfsiN_HE-3" target="TykPopmfQmUwdfsiN_HE-4">
          <mxGeometry relative="1" as="geometry" />
        </mxCell>
        <mxCell id="TM8YRsqnfAsOyz8qdMfb-19" style="edgeStyle=orthogonalEdgeStyle;rounded=0;orthogonalLoop=1;jettySize=auto;html=1;entryX=1;entryY=0.5;entryDx=0;entryDy=0;" edge="1" parent="1" source="TykPopmfQmUwdfsiN_HE-3" target="TykPopmfQmUwdfsiN_HE-5">
          <mxGeometry relative="1" as="geometry" />
        </mxCell>
        <mxCell id="TykPopmfQmUwdfsiN_HE-3" value="Login" style="rounded=0;whiteSpace=wrap;html=1;" vertex="1" parent="1">
          <mxGeometry x="700" y="270" width="120" height="60" as="geometry" />
        </mxCell>
        <mxCell id="TM8YRsqnfAsOyz8qdMfb-16" style="edgeStyle=orthogonalEdgeStyle;rounded=0;orthogonalLoop=1;jettySize=auto;html=1;entryX=1;entryY=0.5;entryDx=0;entryDy=0;" edge="1" parent="1" source="TykPopmfQmUwdfsiN_HE-4" target="TykPopmfQmUwdfsiN_HE-3">
          <mxGeometry relative="1" as="geometry" />
        </mxCell>
        <mxCell id="TykPopmfQmUwdfsiN_HE-4" value="Login Failed" style="rounded=0;whiteSpace=wrap;html=1;" vertex="1" parent="1">
          <mxGeometry x="880" y="390" width="120" height="60" as="geometry" />
        </mxCell>
        <mxCell id="TM8YRsqnfAsOyz8qdMfb-13" style="edgeStyle=orthogonalEdgeStyle;rounded=0;orthogonalLoop=1;jettySize=auto;html=1;entryX=1;entryY=0.75;entryDx=0;entryDy=0;" edge="1" parent="1" source="TykPopmfQmUwdfsiN_HE-5" target="TykPopmfQmUwdfsiN_HE-2">
          <mxGeometry relative="1" as="geometry" />
        </mxCell>
        <mxCell id="TM8YRsqnfAsOyz8qdMfb-15" style="edgeStyle=orthogonalEdgeStyle;rounded=0;orthogonalLoop=1;jettySize=auto;html=1;entryX=0.5;entryY=1;entryDx=0;entryDy=0;" edge="1" parent="1" source="TykPopmfQmUwdfsiN_HE-5" target="TykPopmfQmUwdfsiN_HE-1">
          <mxGeometry relative="1" as="geometry" />
        </mxCell>
        <mxCell id="TykPopmfQmUwdfsiN_HE-5" value="Login Successful" style="rounded=0;whiteSpace=wrap;html=1;" vertex="1" parent="1">
          <mxGeometry x="620" y="430" width="120" height="60" as="geometry" />
        </mxCell>
        <mxCell id="TM8YRsqnfAsOyz8qdMfb-6" value="Bid on Item" style="rounded=0;whiteSpace=wrap;html=1;" vertex="1" parent="1">
          <mxGeometry x="360" y="430" width="120" height="60" as="geometry" />
        </mxCell>
      </root>
    </mxGraphModel>
  </diagram>
</mxfile>
